<?xml version="1.0" encoding="UTF-8"?>
<svg version="1.1" xmlns="http://www.w3.org/2000/svg" width="113" height="77">
<path d="M0 0 C0.76166977 0.00222061 1.52333954 0.00444122 2.30809021 0.00672913 C3.16890701 0.00680466 4.02972382 0.00688019 4.91662598 0.00695801 C5.8520372 0.01211929 6.78744843 0.01728058 7.75120544 0.02259827 C8.70422043 0.02401321 9.65723541 0.02542816 10.63912964 0.02688599 C13.69605085 0.032503 16.75289996 0.04505836 19.80979919 0.05775452 C21.87685543 0.06276733 23.94391281 0.06733061 26.01097107 0.07142639 C31.08977507 0.08247795 36.16852489 0.09975397 41.24729919 0.12025452 C42.79118617 3.00435535 44.30310842 5.9040726 45.80979919 8.80775452 C46.46625427 10.03268616 46.46625427 10.03268616 47.13597107 11.28236389 C47.74988708 12.47635803 47.74988708 12.47635803 48.37620544 13.69447327 C48.94963684 14.78634949 48.94963684 14.78634949 49.53465271 15.90028381 C50.42415302 18.67117326 50.06786997 20.3595631 49.24729919 23.12025452 C48.75229919 23.61525452 48.75229919 23.61525452 48.24729919 24.12025452 C46.59729919 24.12025452 44.94729919 24.12025452 43.24729919 24.12025452 C40.60729919 19.17025452 37.96729919 14.22025452 35.24729919 9.12025452 C26.66729919 9.12025452 18.08729919 9.12025452 9.24729919 9.12025452 C17.82729919 26.28025452 26.40729919 43.44025452 35.24729919 61.12025452 C43.15121098 46.15600284 43.15121098 46.15600284 50.81761169 31.07728577 C51.26957916 30.17193588 51.72154663 29.266586 52.18721008 28.33380127 C53.58417824 25.53441386 54.97831195 22.73362727 56.37229919 19.93275452 C57.33825409 17.99581033 58.30439908 16.05896093 59.27073669 14.12220764 C61.59843841 9.45597377 63.9236059 4.78848571 66.24729919 0.12025452 C72.3528463 0.09560938 78.4583647 0.07742081 84.56394958 0.06532288 C86.64273075 0.06028163 88.72150836 0.05344877 90.80027771 0.04481506 C93.78132505 0.03274029 96.76232569 0.02702428 99.74339294 0.02259827 C101.14650978 0.01485634 101.14650978 0.01485634 102.57797241 0.00695801 C103.43878922 0.00688248 104.29960602 0.00680695 105.18650818 0.00672913 C106.32901283 0.00339821 106.32901283 0.00339821 107.49459839 0 C109.24729919 0.12025452 109.24729919 0.12025452 110.24729919 1.12025452 C110.72780521 6.12634062 109.42571588 9.63599208 107.20555115 14.01185608 C106.72016624 15.00321564 106.72016624 15.00321564 106.22497559 16.01460266 C105.15735498 18.1862952 104.07235632 20.34871671 102.98558044 22.51087952 C102.23468378 24.02179835 101.48438226 25.5330131 100.73464966 27.04450989 C99.16298872 30.20567567 97.58234734 33.36214877 95.99559021 36.51576233 C93.96333894 40.55724864 91.95678284 44.61088625 89.95710468 48.66856766 C88.41471968 51.79002111 86.85751413 54.90389663 85.29587364 58.0157547 C84.54978165 59.50763197 83.80865291 61.00200212 83.07261086 62.49886322 C82.0422447 64.58934718 80.99200402 66.66859676 79.9360199 68.74623108 C79.63607117 69.36546448 79.33612244 69.98469788 79.02708435 70.62269592 C77.49990036 73.57453239 76.51435283 74.98349006 73.51675415 76.51863098 C72.39337395 76.81643463 72.39337395 76.81643463 71.24729919 77.12025452 C66.70435492 73.36461206 64.51486981 68.35403274 61.93479919 63.18275452 C61.46751404 62.28878967 61.00022888 61.39482483 60.51878357 60.47377014 C60.08243591 59.60558655 59.64608826 58.73740295 59.19651794 57.84291077 C58.7977948 57.05666321 58.39907166 56.27041565 57.98826599 55.46034241 C57.08905688 52.62050078 57.39484292 50.94464319 58.24729919 48.12025452 C58.57729919 47.79025452 58.90729919 47.46025452 59.24729919 47.12025452 C60.89729919 47.12025452 62.54729919 47.12025452 64.24729919 47.12025452 C66.88729919 51.74025452 69.52729919 56.36025452 72.24729919 61.12025452 C80.82729919 43.96025452 89.40729919 26.80025452 98.24729919 9.12025452 C89.66729919 9.12025452 81.08729919 9.12025452 72.24729919 9.12025452 C70.78707336 12.10354797 70.78707336 12.10354797 69.29734802 15.14710999 C66.07905858 21.71623119 62.84309798 28.27652867 59.59836292 34.83262444 C57.63155592 38.80799261 55.67081322 42.78611789 53.72361755 46.77113342 C51.84432692 50.61662132 49.94951952 54.45408624 48.04369164 58.28648758 C47.31925328 59.75014887 46.60045525 61.2166158 45.88741493 62.68586349 C44.88779716 64.74315405 43.86860189 66.7895618 42.84422302 68.83460999 C42.26908463 70.00265167 41.69394623 71.17069336 41.10137939 72.37413025 C39.03950824 75.42801886 37.75402281 76.18446657 34.24729919 77.12025452 C30.7757033 74.0058522 28.85656824 70.85470955 26.76390076 66.70277405 C26.44144882 66.06809204 26.11899689 65.43341003 25.78677368 64.77949524 C24.72889018 62.6914084 23.6829018 60.59763893 22.63792419 58.50306702 C21.90412376 57.04324505 21.1699671 55.5836021 20.43547058 54.12413025 C18.900324 51.06873666 17.3713904 48.01032895 15.84642029 44.94984436 C13.894035 41.03347606 11.92360081 37.12651026 9.94804764 33.22178841 C8.42807212 30.21133371 6.91924389 27.19539625 5.41355133 24.17777634 C4.69167224 22.73504309 3.96602199 21.29419025 3.2365036 19.85530472 C2.21711112 17.84126144 1.21335014 15.82013695 0.21311951 13.79652405 C-0.36105713 12.64942963 -0.93523376 11.50233521 -1.52680969 10.32048035 C-2.80592551 6.98130982 -3.08453055 4.66158304 -2.75270081 1.12025452 C-1.75270081 0.12025452 -1.75270081 0.12025452 0 0 Z " fill="#000000" transform="translate(2.7527008056640625,-0.1202545166015625)"/>
</svg>
