<svg width="157" height="46" viewBox="0 0 157 46" fill="none" xmlns="http://www.w3.org/2000/svg">
<path d="M38.3846 30.6923L44.5385 43L64.5385 3H43L33.7692 21.4615L23 43L3 3H24.5385L29.1538 12.2308" stroke="white" stroke-width="4.61539" stroke-linecap="round" stroke-linejoin="round"/>
<path d="M67.7504 34V11.969H72.4282V19.544C73.0318 19.0612 73.6958 18.7091 74.4201 18.4877C75.1444 18.2664 75.8687 18.1558 76.593 18.1558C78.0014 18.1558 79.1884 18.4576 80.1542 19.0612C81.14 19.6647 81.8744 20.4896 82.3573 21.5359C82.8603 22.5821 83.1118 23.7692 83.1118 25.0971V34H78.4339V25.2781C78.4339 24.6947 78.2931 24.1816 78.0114 23.739C77.7499 23.2762 77.3877 22.9141 76.925 22.6525C76.4823 22.3708 75.9894 22.23 75.4462 22.23C74.9029 22.23 74.4 22.3608 73.9372 22.6223C73.4745 22.8839 73.1022 23.236 72.8206 23.6786C72.559 24.1212 72.4282 24.6242 72.4282 25.1876V34H67.7504ZM86.6126 34V18.5179H91.3206V34H86.6126ZM88.9666 16.7675C88.2222 16.7675 87.5783 16.4959 87.0351 15.9527C86.4919 15.4094 86.2203 14.7656 86.2203 14.0212C86.2203 13.2768 86.4919 12.6329 87.0351 12.0897C87.5783 11.5263 88.2222 11.2447 88.9666 11.2447C89.711 11.2447 90.3548 11.5263 90.8981 12.0897C91.4413 12.6329 91.7129 13.2768 91.7129 14.0212C91.7129 14.7656 91.4413 15.4094 90.8981 15.9527C90.3548 16.4959 89.711 16.7675 88.9666 16.7675ZM94.7771 34V30.2879H102.231C102.433 30.2879 102.614 30.2477 102.775 30.1672C102.936 30.0666 103.066 29.9358 103.167 29.7749C103.268 29.6139 103.318 29.4429 103.318 29.2618C103.318 29.0606 103.268 28.8795 103.167 28.7186C103.066 28.5576 102.936 28.4369 102.775 28.3564C102.614 28.2558 102.433 28.2055 102.231 28.2055H99.5153C98.5093 28.2055 97.5938 28.0446 96.7689 27.7227C95.9641 27.3806 95.3203 26.8575 94.8374 26.1533C94.3747 25.429 94.1433 24.4935 94.1433 23.3466C94.1433 22.4614 94.3546 21.6566 94.7771 20.9323C95.2197 20.208 95.8132 19.6245 96.5577 19.1819C97.3222 18.7392 98.1572 18.5179 99.0626 18.5179H106.517V22.2602H99.7869C99.5052 22.2602 99.2638 22.3507 99.0626 22.5318C98.8815 22.7129 98.791 22.9342 98.791 23.1957C98.791 23.4774 98.8815 23.7189 99.0626 23.9201C99.2638 24.1011 99.5052 24.1917 99.7869 24.1917H102.443C103.569 24.1917 104.535 24.3627 105.34 24.7047C106.165 25.0266 106.799 25.5497 107.241 26.2741C107.704 26.9984 107.935 27.9339 107.935 29.0807C107.935 29.9861 107.704 30.811 107.241 31.5555C106.799 32.2999 106.195 32.8934 105.43 33.3361C104.686 33.7787 103.841 34 102.895 34H94.7771ZM118.929 18.1558C120.237 18.1558 121.394 18.367 122.4 18.7895C123.426 19.1919 124.291 19.7754 124.995 20.5399C125.719 21.2844 126.273 22.1696 126.655 23.1957C127.037 24.2017 127.228 25.3184 127.228 26.5457C127.228 28.0748 126.906 29.4328 126.263 30.6199C125.639 31.7868 124.774 32.7023 123.667 33.3662C122.561 34.0302 121.273 34.3622 119.804 34.3622C119.18 34.3622 118.587 34.2817 118.024 34.1207C117.48 33.9598 116.977 33.7284 116.515 33.4266C116.072 33.1248 115.7 32.7526 115.398 32.3099H115.307V40.5489H110.63V26.5457C110.63 24.8355 110.972 23.3567 111.656 22.1093C112.34 20.8619 113.305 19.8961 114.553 19.2121C115.8 18.5079 117.259 18.1558 118.929 18.1558ZM118.929 22.1998C118.205 22.1998 117.571 22.3809 117.028 22.7431C116.505 23.0851 116.102 23.568 115.82 24.1917C115.539 24.7953 115.398 25.4793 115.398 26.2439C115.398 27.0084 115.539 27.6925 115.82 28.2961C116.102 28.8997 116.505 29.3825 117.028 29.7447C117.571 30.0867 118.205 30.2577 118.929 30.2577C119.653 30.2577 120.277 30.0867 120.8 29.7447C121.323 29.3825 121.726 28.8997 122.007 28.2961C122.309 27.6925 122.46 27.0084 122.46 26.2439C122.46 25.4793 122.309 24.7953 122.007 24.1917C121.726 23.568 121.323 23.0851 120.8 22.7431C120.277 22.3809 119.653 22.1998 118.929 22.1998ZM138.084 34C136.333 34 134.794 33.6781 133.466 33.0343C132.138 32.3703 131.102 31.4649 130.358 30.3181C129.633 29.1512 129.271 27.8031 129.271 26.2741C129.271 24.584 129.623 23.1354 130.328 21.9282C131.032 20.721 131.967 19.7955 133.134 19.1517C134.321 18.4877 135.629 18.1558 137.058 18.1558C138.687 18.1558 140.045 18.4978 141.132 19.1819C142.238 19.8659 143.073 20.8015 143.637 21.9886C144.2 23.1555 144.482 24.4935 144.482 26.0024C144.482 26.264 144.462 26.5758 144.421 26.938C144.401 27.28 144.371 27.5516 144.331 27.7528H134.191C134.311 28.276 134.543 28.7186 134.885 29.0807C135.227 29.4429 135.659 29.7145 136.182 29.8956C136.706 30.0565 137.289 30.137 137.933 30.137H142.671V34H138.084ZM134.07 24.8254H139.955C139.915 24.5035 139.854 24.1917 139.774 23.8899C139.693 23.5881 139.562 23.3265 139.381 23.1052C139.22 22.8638 139.029 22.6626 138.808 22.5016C138.587 22.3205 138.325 22.1797 138.023 22.0791C137.742 21.9785 137.42 21.9282 137.058 21.9282C136.595 21.9282 136.182 22.0087 135.82 22.1696C135.458 22.3306 135.156 22.5519 134.915 22.8336C134.673 23.0951 134.482 23.407 134.341 23.7692C134.221 24.1112 134.13 24.4633 134.07 24.8254ZM147.087 34V23.075C147.087 21.6666 147.489 20.5601 148.294 19.7553C149.099 18.9505 150.215 18.5481 151.644 18.5481H156.14V22.3507H152.791C152.509 22.3507 152.267 22.4513 152.066 22.6525C151.865 22.8336 151.764 23.075 151.764 23.3768V34H147.087Z" fill="white"/>
</svg>
